<mxfile host="app.diagrams.net" modified="2023-04-19T01:58:50.611Z" agent="Mozilla/5.0 (Windows NT 10.0; Win64; x64) AppleWebKit/537.36 (KHTML, like Gecko) Chrome/112.0.0.0 Safari/537.36" etag="UwWcjvnicrvVStCriXug" version="21.1.8" type="device">
  <diagram name="Trang-1" id="FDs8Tv5cfrz7gmh81i38">
    <mxGraphModel dx="1050" dy="573" grid="1" gridSize="10" guides="1" tooltips="1" connect="1" arrows="1" fold="1" page="1" pageScale="1" pageWidth="827" pageHeight="1169" math="0" shadow="0">
      <root>
        <mxCell id="0" />
        <mxCell id="1" parent="0" />
        <mxCell id="PGT-0X2YuYMTp389M-ES-1" value="Nguyễn Thế Mạnh" style="rounded=0;whiteSpace=wrap;html=1;" vertex="1" parent="1">
          <mxGeometry x="70" y="220" width="120" height="50" as="geometry" />
        </mxCell>
        <mxCell id="PGT-0X2YuYMTp389M-ES-2" value="Nguyễn Thế Mạnh" style="rounded=0;whiteSpace=wrap;html=1;" vertex="1" parent="1">
          <mxGeometry x="260" y="120" width="120" height="50" as="geometry" />
        </mxCell>
      </root>
    </mxGraphModel>
  </diagram>
</mxfile>
